<?xml version="1.0" encoding="UTF-8" standalone="no"?>
<svg
   xmlns:dc="http://purl.org/dc/elements/1.1/"
   xmlns:cc="http://creativecommons.org/ns#"
   xmlns:rdf="http://www.w3.org/1999/02/22-rdf-syntax-ns#"
   xmlns:svg="http://www.w3.org/2000/svg"
   xmlns="http://www.w3.org/2000/svg"
   xmlns:sodipodi="http://sodipodi.sourceforge.net/DTD/sodipodi-0.dtd"
   xmlns:inkscape="http://www.inkscape.org/namespaces/inkscape"
   viewBox="0 0 800 150"
   height="150"
   width="800"
   xml:space="preserve"
   id="svg2"
   version="1.1"
   sodipodi:docname="Tema 2 - Imagen 1.svg"
   inkscape:version="1.0.2-2 (e86c870879, 2021-01-15)"><sodipodi:namedview
     pagecolor="#ffffff"
     bordercolor="#666666"
     borderopacity="1"
     objecttolerance="10"
     gridtolerance="10"
     guidetolerance="10"
     inkscape:pageopacity="0"
     inkscape:pageshadow="2"
     inkscape:window-width="1920"
     inkscape:window-height="1017"
     id="namedview140"
     showgrid="false"
     inkscape:zoom="1.0708394"
     inkscape:cx="407.28335"
     inkscape:cy="269.35367"
     inkscape:window-x="-8"
     inkscape:window-y="-8"
     inkscape:window-maximized="1"
     inkscape:current-layer="svg2"
     inkscape:document-rotation="0" /><metadata
     id="metadata8"><rdf:RDF><cc:Work
         rdf:about=""><dc:format>image/svg+xml</dc:format><dc:type
           rdf:resource="http://purl.org/dc/dcmitype/StillImage" /><dc:title></dc:title></cc:Work></rdf:RDF></metadata><defs
     id="defs6"><clipPath
       id="clipPath18"
       clipPathUnits="userSpaceOnUse"><path
         style="clip-rule:evenodd"
         id="path16"
         d="M 8.871e-6,0 H 595.32001 V 841.92 H 8.871e-6 Z" /></clipPath><clipPath
       id="clipPath30"
       clipPathUnits="userSpaceOnUse"><path
         style="clip-rule:evenodd"
         id="path28"
         d="M 8.871e-6,0 H 595.32001 V 841.92 H 8.871e-6 Z" /></clipPath><clipPath
       id="clipPath42"
       clipPathUnits="userSpaceOnUse"><path
         style="clip-rule:evenodd"
         id="path40"
         d="M 8.871e-6,0 H 595.32001 V 841.92 H 8.871e-6 Z" /></clipPath><clipPath
       id="clipPath60"
       clipPathUnits="userSpaceOnUse"><path
         style="clip-rule:evenodd"
         id="path58"
         d="M 8.871e-6,0 H 595.32001 V 841.92 H 8.871e-6 Z" /></clipPath><clipPath
       id="clipPath72"
       clipPathUnits="userSpaceOnUse"><path
         style="clip-rule:evenodd"
         id="path70"
         d="M 8.871e-6,0 H 595.32001 V 841.92 H 8.871e-6 Z" /></clipPath><clipPath
       id="clipPath84"
       clipPathUnits="userSpaceOnUse"><path
         style="clip-rule:evenodd"
         id="path82"
         d="M 8.871e-6,0 H 595.32001 V 841.92 H 8.871e-6 Z" /></clipPath><clipPath
       id="clipPath96"
       clipPathUnits="userSpaceOnUse"><path
         style="clip-rule:evenodd"
         id="path94"
         d="M 8.871e-6,0 H 595.32001 V 841.92 H 8.871e-6 Z" /></clipPath><clipPath
       id="clipPath108"
       clipPathUnits="userSpaceOnUse"><path
         style="clip-rule:evenodd"
         id="path106"
         d="M 8.871e-6,0 H 595.32001 V 841.92 H 8.871e-6 Z" /></clipPath><clipPath
       id="clipPath126"
       clipPathUnits="userSpaceOnUse"><path
         style="clip-rule:evenodd"
         id="path124"
         d="M 8.871e-6,0 H 595.32001 V 841.92 H 8.871e-6 Z" /></clipPath><clipPath
       id="clipPath138"
       clipPathUnits="userSpaceOnUse"><path
         style="clip-rule:evenodd"
         id="path136"
         d="M 8.871e-6,0 H 595.32001 V 841.92 H 8.871e-6 Z" /></clipPath><clipPath
       id="clipPath150"
       clipPathUnits="userSpaceOnUse"><path
         style="clip-rule:evenodd"
         id="path148"
         d="M 8.871e-6,0 H 595.32001 V 841.92 H 8.871e-6 Z" /></clipPath><clipPath
       id="clipPath162"
       clipPathUnits="userSpaceOnUse"><path
         style="clip-rule:evenodd"
         id="path160"
         d="M -3.0518e-5,841.92 H 595.32 V 1.8311e-4 H -6.1035e-5" /></clipPath><clipPath
       id="clipPath176"
       clipPathUnits="userSpaceOnUse"><path
         style="clip-rule:evenodd"
         id="path174"
         d="M 8.871e-6,0 H 595.32001 V 841.92 H 8.871e-6 Z" /></clipPath><clipPath
       id="clipPath188"
       clipPathUnits="userSpaceOnUse"><path
         style="clip-rule:evenodd"
         id="path186"
         d="M 8.871e-6,0 H 595.32001 V 841.92 H 8.871e-6 Z" /></clipPath><clipPath
       id="clipPath200"
       clipPathUnits="userSpaceOnUse"><path
         style="clip-rule:evenodd"
         id="path198"
         d="M 8.871e-6,0 H 595.32001 V 841.92 H 8.871e-6 Z" /></clipPath><clipPath
       id="clipPath212"
       clipPathUnits="userSpaceOnUse"><path
         style="clip-rule:evenodd"
         id="path210"
         d="M -3.0518e-5,841.92 H 595.32 V 3.0518e-4 L -3.0518e-5,2.4414e-4" /></clipPath><clipPath
       id="clipPath226"
       clipPathUnits="userSpaceOnUse"><path
         style="clip-rule:evenodd"
         id="path224"
         d="M 8.871e-6,0 H 595.32001 V 841.92 H 8.871e-6 Z" /></clipPath><clipPath
       id="clipPath238"
       clipPathUnits="userSpaceOnUse"><path
         style="clip-rule:evenodd"
         id="path236"
         d="M 8.871e-6,0 H 595.32001 V 841.92 H 8.871e-6 Z" /></clipPath><clipPath
       id="clipPath250"
       clipPathUnits="userSpaceOnUse"><path
         style="clip-rule:evenodd"
         id="path248"
         d="M 8.871e-6,0 H 595.32001 V 841.92 H 8.871e-6 Z" /></clipPath><clipPath
       id="clipPath262"
       clipPathUnits="userSpaceOnUse"><path
         style="clip-rule:evenodd"
         id="path260"
         d="M 8.871e-6,0 H 595.32001 V 841.92 H 8.871e-6 Z" /></clipPath><clipPath
       id="clipPath274"
       clipPathUnits="userSpaceOnUse"><path
         style="clip-rule:evenodd"
         id="path272"
         d="M 8.871e-6,0 H 595.32001 V 841.92 H 8.871e-6 Z" /></clipPath></defs><g
     id="g12"
     transform="matrix(1.3333333,0,0,-1.3333333,0,1122.56)"><g
       clip-path="url(#clipPath18)"
       id="g14" /></g><g
     id="g1271"
     transform="matrix(1.4122912,0,0,1.4122912,-151.1814,-202.42647)"><path
       id="path20"
       style="fill:#4472c4;fill-opacity:1;fill-rule:evenodd;stroke:none;stroke-width:1.33333"
       d="m 113.67066,160.28002 c 0,-4.62666 3.75467,-8.38666 8.388,-8.38666 H 189.16 c 4.62666,0 8.38666,3.76 8.38666,8.38666 v 71.30667 c 0,4.62667 -3.76,8.38667 -8.38666,8.38667 h -67.10134 c -4.63333,0 -8.388,-3.76 -8.388,-8.38667 z" /><path
       id="path22"
       style="fill:none;stroke:#ffffff;stroke-width:1.33333;stroke-linecap:butt;stroke-linejoin:miter;stroke-miterlimit:10;stroke-dasharray:none;stroke-opacity:1"
       d="m 113.67066,160.28002 c 0,-4.62666 3.75467,-8.38666 8.388,-8.38666 H 189.16 c 4.62666,0 8.38666,3.76 8.38666,8.38666 v 71.30667 c 0,4.62667 -3.76,8.38667 -8.38666,8.38667 h -67.10134 c -4.63333,0 -8.388,-3.76 -8.388,-8.38667 z" /><path
       id="path48"
       style="fill:#b0bcde;fill-opacity:1;fill-rule:evenodd;stroke:none;stroke-width:1.33333"
       d="m 205.93333,189.69336 h 8.89333 v -4.16 l 8.89333,10.4 -8.89333,10.4 v -4.16 h -8.89333 z" /><path
       id="path50"
       style="fill:#4472c4;fill-opacity:1;fill-rule:evenodd;stroke:none;stroke-width:1.33333"
       d="m 231.09333,160.28002 c 0,-4.62666 3.76,-8.38666 8.4,-8.38666 h 67.09333 c 4.64,0 8.38667,3.76 8.38667,8.38666 v 71.30667 c 0,4.62667 -3.74667,8.38667 -8.38667,8.38667 h -67.09333 c -4.64,0 -8.4,-3.76 -8.4,-8.38667 z" /><path
       id="path52"
       style="fill:none;stroke:#ffffff;stroke-width:1.33333;stroke-linecap:butt;stroke-linejoin:miter;stroke-miterlimit:10;stroke-dasharray:none;stroke-opacity:1"
       d="m 231.09333,160.28002 c 0,-4.62666 3.76,-8.38666 8.4,-8.38666 h 67.09333 c 4.64,0 8.38667,3.76 8.38667,8.38666 v 71.30667 c 0,4.62667 -3.74667,8.38667 -8.38667,8.38667 h -67.09333 c -4.64,0 -8.4,-3.76 -8.4,-8.38667 z" /><path
       id="path114"
       style="fill:#b0bcde;fill-opacity:1;fill-rule:evenodd;stroke:none;stroke-width:1.33333"
       d="m 323.35999,189.69336 h 8.89334 v -4.16 l 8.89333,10.4 -8.89333,10.4 v -4.16 h -8.89334 z" /><path
       id="path116"
       style="fill:#4472c4;fill-opacity:1;fill-rule:evenodd;stroke:none;stroke-width:1.33333"
       d="m 348.53332,160.28002 c 0,-4.62666 3.74667,-8.38666 8.38667,-8.38666 h 67.09333 c 4.64,0 8.38667,3.76 8.38667,8.38666 v 71.30667 c 0,4.62667 -3.74667,8.38667 -8.38667,8.38667 h -67.09333 c -4.64,0 -8.38667,-3.76 -8.38667,-8.38667 z" /><path
       id="path118"
       style="fill:none;stroke:#ffffff;stroke-width:1.33333;stroke-linecap:butt;stroke-linejoin:miter;stroke-miterlimit:10;stroke-dasharray:none;stroke-opacity:1"
       d="m 348.53332,160.28002 c 0,-4.62666 3.74667,-8.38666 8.38667,-8.38666 h 67.09333 c 4.64,0 8.38667,3.76 8.38667,8.38666 v 71.30667 c 0,4.62667 -3.74667,8.38667 -8.38667,8.38667 h -67.09333 c -4.64,0 -8.38667,-3.76 -8.38667,-8.38667 z" /><g
       id="g156"
       transform="matrix(1.3333333,0,0,-1.3333333,0,1122.56)"><g
         clip-path="url(#clipPath162)"
         id="g158"><path
           id="path164"
           style="fill:#b0bcde;fill-opacity:1;fill-rule:evenodd;stroke:none"
           d="m 330.94,699.26 6.99,-0.07 0.03,3.12 6.91,-7.88 -7.07,-7.72 0.03,3.12 -6.98,0.07 z" /></g></g><path
       id="path166"
       style="fill:#4472c4;fill-opacity:1;fill-rule:evenodd;stroke:none;stroke-width:1.33333"
       d="m 467.55999,161.50669 c 0,-4.62667 3.74666,-8.38667 8.38666,-8.38667 h 67.09334 c 4.64,0 8.4,3.76 8.4,8.38667 v 71.30667 c 0,4.62666 -3.76,8.38666 -8.4,8.38666 h -67.09334 c -4.64,0 -8.38666,-3.76 -8.38666,-8.38666 z" /><path
       id="path168"
       style="fill:none;stroke:#ffffff;stroke-width:1.33333;stroke-linecap:butt;stroke-linejoin:miter;stroke-miterlimit:10;stroke-dasharray:none;stroke-opacity:1"
       d="m 467.55999,161.50669 c 0,-4.62667 3.74666,-8.38667 8.38666,-8.38667 h 67.09334 c 4.64,0 8.4,3.76 8.4,8.38667 v 71.30667 c 0,4.62666 -3.76,8.38666 -8.4,8.38666 h -67.09334 c -4.64,0 -8.38666,-3.76 -8.38666,-8.38666 z" /><g
       id="g206"
       transform="matrix(1.3333333,0,0,-1.3333333,0,1122.56)"><g
         clip-path="url(#clipPath212)"
         id="g208"><path
           id="path214"
           style="fill:#b0bcde;fill-opacity:1;fill-rule:evenodd;stroke:none"
           d="m 419.52,699.13 6.35,0.06 -0.04,3.12 6.44,-7.73 -6.27,-7.87 -0.03,3.12 -6.35,-0.06 z" /></g></g><path
       id="path216"
       style="fill:#4472c4;fill-opacity:1;fill-rule:evenodd;stroke:none;stroke-width:1.33333"
       d="m 583.38665,160.28002 c 0,-4.62666 3.76,-8.38666 8.38667,-8.38666 h 67.10666 c 4.62667,0 8.38667,3.76 8.38667,8.38666 v 71.30667 c 0,4.62667 -3.76,8.38667 -8.38667,8.38667 h -67.10666 c -4.62667,0 -8.38667,-3.76 -8.38667,-8.38667 z" /><path
       id="path218"
       style="fill:none;stroke:#ffffff;stroke-width:1.33333;stroke-linecap:butt;stroke-linejoin:miter;stroke-miterlimit:10;stroke-dasharray:none;stroke-opacity:1"
       d="m 583.38665,160.28002 c 0,-4.62666 3.76,-8.38666 8.38667,-8.38666 h 67.10666 c 4.62667,0 8.38667,3.76 8.38667,8.38666 v 71.30667 c 0,4.62667 -3.76,8.38667 -8.38667,8.38667 h -67.10666 c -4.62667,0 -8.38667,-3.76 -8.38667,-8.38667 z" /><text
       xml:space="preserve"
       style="font-style:normal;font-weight:normal;font-size:11.585px;line-height:1.25;font-family:sans-serif;text-align:center;text-anchor:middle;fill:#ffffff;fill-opacity:1;stroke:none;stroke-width:0.289626"
       x="155.35693"
       y="191.88879"
       id="text1059"><tspan
         sodipodi:role="line"
         id="tspan1057"
         x="155.35693"
         y="191.88879"
         style="fill:#ffffff;fill-opacity:1;stroke-width:0.289626">Entendiendo</tspan><tspan
         sodipodi:role="line"
         x="155.35693"
         y="206.37004"
         id="tspan1061"
         style="fill:#ffffff;fill-opacity:1;stroke-width:0.289626">el problema</tspan></text><text
       xml:space="preserve"
       style="font-style:normal;font-weight:normal;font-size:11.585px;line-height:1.25;font-family:sans-serif;text-align:center;text-anchor:middle;fill:#ffffff;fill-opacity:1;stroke:none;stroke-width:0.289626"
       x="273.03046"
       y="178.53041"
       id="text1059-9"><tspan
         sodipodi:role="line"
         id="tspan1057-1"
         x="273.03046"
         y="178.53041"
         style="fill:#ffffff;fill-opacity:1;stroke-width:0.289626">Buscando</tspan><tspan
         sodipodi:role="line"
         x="273.03046"
         y="193.01166"
         style="fill:#ffffff;fill-opacity:1;stroke-width:0.289626"
         id="tspan1091">una soluci贸n</tspan><tspan
         sodipodi:role="line"
         x="273.03046"
         y="207.4929"
         style="fill:#ffffff;fill-opacity:1;stroke-width:0.289626"
         id="tspan1093">o un conjunto</tspan><tspan
         sodipodi:role="line"
         x="273.03046"
         y="221.97417"
         id="tspan1061-5"
         style="fill:#ffffff;fill-opacity:1;stroke-width:0.289626">de soluciones</tspan></text><text
       xml:space="preserve"
       style="font-style:normal;font-weight:normal;font-size:11.585px;line-height:1.25;font-family:sans-serif;text-align:center;text-anchor:middle;fill:#ffffff;fill-opacity:1;stroke:none;stroke-width:0.289626"
       x="390.64484"
       y="185.77103"
       id="text1059-9-5"><tspan
         sodipodi:role="line"
         id="tspan1057-1-3"
         x="390.64484"
         y="185.77103"
         style="fill:#ffffff;fill-opacity:1;stroke-width:0.289626">Elegir la</tspan><tspan
         sodipodi:role="line"
         x="390.64484"
         y="200.25227"
         style="fill:#ffffff;fill-opacity:1;stroke-width:0.289626"
         id="tspan1135">soluci贸n</tspan><tspan
         sodipodi:role="line"
         x="390.64484"
         y="214.73352"
         id="tspan1061-5-4"
         style="fill:#ffffff;fill-opacity:1;stroke-width:0.289626">correcta</tspan></text><text
       xml:space="preserve"
       style="font-style:normal;font-weight:normal;font-size:11.585px;line-height:1.25;font-family:sans-serif;text-align:center;text-anchor:middle;fill:#ffffff;fill-opacity:1;stroke:none;stroke-width:0.289626"
       x="508.93149"
       y="194.23831"
       id="text1059-9-9"><tspan
         sodipodi:role="line"
         id="tspan1057-1-1"
         x="508.93149"
         y="194.23831"
         style="fill:#ffffff;fill-opacity:1;stroke-width:0.289626">Implementar</tspan><tspan
         sodipodi:role="line"
         x="508.93149"
         y="208.71956"
         id="tspan1061-5-7"
         style="fill:#ffffff;fill-opacity:1;stroke-width:0.289626">la soluci贸n</tspan></text><text
       xml:space="preserve"
       style="font-style:normal;font-weight:normal;font-size:11.585px;line-height:1.25;font-family:sans-serif;text-align:center;text-anchor:middle;fill:#ffffff;fill-opacity:1;stroke:none;stroke-width:0.289626"
       x="625.28986"
       y="171.28978"
       id="text1059-9-3"><tspan
         sodipodi:role="line"
         x="625.28986"
         y="171.28978"
         style="fill:#ffffff;fill-opacity:1;stroke-width:0.289626"
         id="tspan1091-4">Probar si la</tspan><tspan
         sodipodi:role="line"
         x="625.28986"
         y="185.77103"
         style="fill:#ffffff;fill-opacity:1;stroke-width:0.289626"
         id="tspan1215">soluci贸n</tspan><tspan
         sodipodi:role="line"
         x="625.28986"
         y="200.25227"
         style="fill:#ffffff;fill-opacity:1;stroke-width:0.289626"
         id="tspan1219">consigue los</tspan><tspan
         sodipodi:role="line"
         x="625.28986"
         y="214.73354"
         style="fill:#ffffff;fill-opacity:1;stroke-width:0.289626"
         id="tspan1223">resultados</tspan><tspan
         sodipodi:role="line"
         x="625.28986"
         y="229.21478"
         id="tspan1061-5-2"
         style="fill:#ffffff;fill-opacity:1;stroke-width:0.289626">deseados</tspan></text></g></svg>
